<svg xmlns="http://www.w3.org/2000/svg" width="1800" height="900" viewBox="0 0 1800 900" role="img" aria-label="Imagem padrão rural para banner">
  <defs>
    <linearGradient id="sky" x1="0" y1="0" x2="1" y2="1">
      <stop offset="0" stop-color="#2b1c14"/>
      <stop offset="0.42" stop-color="#744629"/>
      <stop offset="0.7" stop-color="#b7874f"/>
      <stop offset="1" stop-color="#47614a"/>
    </linearGradient>
    <linearGradient id="boot" x1="0" y1="0" x2="1" y2="1">
      <stop offset="0" stop-color="#20130e"/>
      <stop offset="0.55" stop-color="#6f3f24"/>
      <stop offset="1" stop-color="#2f2017"/>
    </linearGradient>
    <filter id="shadow" x="-20%" y="-20%" width="140%" height="140%">
      <feDropShadow dx="0" dy="22" stdDeviation="18" flood-color="#1a0f0a" flood-opacity="0.42"/>
    </filter>
  </defs>
  <rect width="1800" height="900" fill="url(#sky)"/>
  <path d="M0 570 C240 500 410 600 650 540 C890 480 1070 570 1290 520 C1505 472 1630 505 1800 468 L1800 900 L0 900 Z" fill="#2f4535" opacity="0.78"/>
  <path d="M0 655 C290 596 505 706 790 632 C1050 565 1260 666 1510 594 C1640 556 1730 565 1800 548 L1800 900 L0 900 Z" fill="#1d2b21" opacity="0.9"/>
  <path d="M1130 202 L1352 202 L1425 575 C1538 596 1612 629 1662 674 C1648 732 1598 762 1512 762 L1032 762 C953 762 892 739 848 694 C891 622 955 581 1040 570 Z" fill="url(#boot)" filter="url(#shadow)"/>
  <path d="M1065 585 C1168 632 1388 638 1534 618" fill="none" stroke="#d7bb7d" stroke-width="18" stroke-linecap="round" opacity="0.58"/>
  <path d="M1180 260 L1338 260" stroke="#d7bb7d" stroke-width="9" stroke-linecap="round" opacity="0.58"/>
  <path d="M1195 320 L1350 320" stroke="#d7bb7d" stroke-width="8" stroke-linecap="round" opacity="0.38"/>
  <g opacity="0.16" stroke="#fffaf1" stroke-width="2">
    <path d="M120 150 H520"/>
    <path d="M80 210 H410"/>
    <path d="M1300 130 H1690"/>
    <path d="M1280 190 H1600"/>
  </g>
</svg>
