<svg xmlns="http://www.w3.org/2000/svg" width="760" height="500" viewBox="0 0 760 500" role="img" aria-label="Botina caramelo">
  <defs>
    <linearGradient id="tan" x1="0" y1="0" x2="1" y2="1">
      <stop offset="0" stop-color="#f1bd65"/>
      <stop offset="0.52" stop-color="#c87928"/>
      <stop offset="1" stop-color="#8c471e"/>
    </linearGradient>
    <filter id="shadow" x="-20%" y="-20%" width="140%" height="140%">
      <feDropShadow dx="0" dy="18" stdDeviation="16" flood-color="#120904" flood-opacity="0.36"/>
    </filter>
  </defs>
  <g filter="url(#shadow)">
    <path d="M262 58 C319 73 354 106 366 157 L393 277 C490 287 572 318 638 371 C622 421 574 448 496 449 L188 448 C116 448 69 425 48 381 C79 331 127 300 193 287 L210 119 C214 77 229 49 262 58 Z" fill="url(#tan)"/>
    <path d="M213 123 C253 153 309 154 363 132 L386 278 C313 306 250 302 194 286 Z" fill="#cf842d"/>
    <path d="M227 99 L236 287 M255 96 L265 292 M284 104 L294 296 M313 117 L322 302" stroke="#8a481e" stroke-width="8" stroke-linecap="round"/>
    <path d="M225 104 L234 286 M254 102 L263 290 M283 110 L292 294 M312 123 L320 299" stroke="#e7b65e" stroke-width="3" stroke-linecap="round"/>
    <path d="M88 377 C229 408 423 408 625 380" fill="none" stroke="#4b2915" stroke-width="30" stroke-linecap="round"/>
    <path d="M109 354 C260 385 432 386 579 365" fill="none" stroke="#f4c16d" stroke-width="9" stroke-linecap="round"/>
    <ellipse cx="347" cy="250" rx="24" ry="12" fill="none" stroke="#94511f" stroke-width="5" transform="rotate(-25 347 250)"/>
  </g>
</svg>
