<svg xmlns="http://www.w3.org/2000/svg" width="1000" height="760" viewBox="0 0 1000 760" role="img" aria-label="Imagem padrão de botinas em oficina">
  <defs>
    <linearGradient id="bg" x1="0" y1="0" x2="1" y2="1">
      <stop offset="0" stop-color="#47614a"/>
      <stop offset="0.5" stop-color="#7b4a2b"/>
      <stop offset="1" stop-color="#d7bb7d"/>
    </linearGradient>
    <linearGradient id="leather" x1="0" y1="0" x2="1" y2="1">
      <stop offset="0" stop-color="#20130e"/>
      <stop offset="0.54" stop-color="#7b4a2b"/>
      <stop offset="1" stop-color="#2d1c13"/>
    </linearGradient>
  </defs>
  <rect width="1000" height="760" fill="url(#bg)"/>
  <rect y="530" width="1000" height="230" fill="#241711" opacity="0.68"/>
  <path d="M250 138 L405 138 L455 496 C555 509 640 545 710 604 C690 655 635 680 545 680 L203 680 C142 680 95 660 62 620 C94 561 143 525 208 512 Z" fill="url(#leather)"/>
  <path d="M515 210 L655 210 L702 508 C777 522 842 550 895 594 C878 644 827 670 742 670 L505 670 C453 670 412 655 382 624 C407 576 448 542 505 522 Z" fill="url(#leather)" opacity="0.94"/>
  <path d="M208 526 C323 570 526 567 666 540" fill="none" stroke="#d7bb7d" stroke-width="13" stroke-linecap="round" opacity="0.54"/>
  <path d="M300 204 L400 204 M315 266 L414 266 M575 270 L665 270 M587 325 L675 325" stroke="#f6f0e5" stroke-width="7" stroke-linecap="round" opacity="0.5"/>
</svg>
