<svg xmlns="http://www.w3.org/2000/svg" viewBox="0 0 320 220" role="img" aria-labelledby="title desc">
  <title id="title">Trator rural</title>
  <desc id="desc">Silhueta marrom de um trator em fundo bege.</desc>
  <defs>
    <filter id="soft-grain">
      <feTurbulence type="fractalNoise" baseFrequency="0.9" numOctaves="2" stitchTiles="stitch"/>
      <feColorMatrix type="saturate" values="0"/>
      <feComponentTransfer>
        <feFuncA type="table" tableValues="0 0.08"/>
      </feComponentTransfer>
    </filter>
  </defs>
  <rect width="320" height="220" fill="#ead2b0"/>
  <rect width="320" height="220" fill="#9b6a3a" opacity="0.08" filter="url(#soft-grain)"/>
  <path fill="#351a08" d="M61 64h106v18H61z"/>
  <path fill="#351a08" d="M82 76h20v67H82zM139 76h18v68h-18z"/>
  <path fill="#351a08" d="M158 125h70l34 31h-90z"/>
  <path fill="#351a08" d="M211 82h21v73h-21z"/>
  <path fill="#351a08" d="M231 81c4-24 20-28 28-16 6 9 2 19-11 28l-7-12c6-5 7-9 4-12-5-3-9 4-10 15z"/>
  <path fill="#351a08" d="M173 116h55v18h-55zM156 145h43v18h-43z"/>
  <circle cx="96" cy="158" r="52" fill="#351a08"/>
  <circle cx="96" cy="158" r="29" fill="#ead2b0"/>
  <circle cx="96" cy="158" r="17" fill="#351a08"/>
  <circle cx="246" cy="164" r="33" fill="#351a08"/>
  <circle cx="246" cy="164" r="19" fill="#ead2b0"/>
  <circle cx="246" cy="164" r="11" fill="#351a08"/>
  <path fill="#351a08" d="M50 143h24v18H50zM124 148h77v15h-77z"/>
</svg>
